<mxfile host="app.diagrams.net" agent="Mozilla/5.0 (Windows NT 10.0; Win64; x64; rv:133.0) Gecko/20100101 Firefox/133.0" version="25.0.3">
  <diagram name="Page-1" id="rWc0JTvha3f1SETIwwfs">
    <mxGraphModel dx="2901" dy="1124" grid="1" gridSize="10" guides="1" tooltips="1" connect="1" arrows="1" fold="1" page="1" pageScale="1" pageWidth="827" pageHeight="1169" math="0" shadow="0">
      <root>
        <mxCell id="0" />
        <mxCell id="1" parent="0" />
        <mxCell id="XwtfY6F0WTNZeX9wsEnE-1" value="" style="rounded=0;whiteSpace=wrap;html=1;" parent="1" vertex="1">
          <mxGeometry x="109" y="90" width="610" height="700" as="geometry" />
        </mxCell>
        <mxCell id="XwtfY6F0WTNZeX9wsEnE-20" value="&lt;div&gt;Utilisateur&lt;/div&gt;&lt;div&gt;&lt;br&gt;&lt;/div&gt;" style="shape=umlActor;verticalLabelPosition=bottom;verticalAlign=top;html=1;outlineConnect=0;" parent="1" vertex="1">
          <mxGeometry x="-100" y="220" width="30" height="60" as="geometry" />
        </mxCell>
        <mxCell id="XwtfY6F0WTNZeX9wsEnE-22" value="&lt;div&gt;S&#39;inscrire&lt;/div&gt;" style="ellipse;whiteSpace=wrap;html=1;" parent="1" vertex="1">
          <mxGeometry x="140" y="110" width="120" height="80" as="geometry" />
        </mxCell>
        <mxCell id="XwtfY6F0WTNZeX9wsEnE-26" value="" style="endArrow=none;html=1;rounded=0;" parent="1" source="XwtfY6F0WTNZeX9wsEnE-20" target="XwtfY6F0WTNZeX9wsEnE-22" edge="1">
          <mxGeometry width="50" height="50" relative="1" as="geometry">
            <mxPoint x="180" y="580" as="sourcePoint" />
            <mxPoint x="230" y="530" as="targetPoint" />
          </mxGeometry>
        </mxCell>
        <mxCell id="XwtfY6F0WTNZeX9wsEnE-27" value="Rechercher des profils" style="ellipse;whiteSpace=wrap;html=1;" parent="1" vertex="1">
          <mxGeometry x="270" y="300" width="120" height="80" as="geometry" />
        </mxCell>
        <mxCell id="XwtfY6F0WTNZeX9wsEnE-28" value="" style="endArrow=none;html=1;rounded=0;" parent="1" source="XwtfY6F0WTNZeX9wsEnE-20" target="XwtfY6F0WTNZeX9wsEnE-27" edge="1">
          <mxGeometry width="50" height="50" relative="1" as="geometry">
            <mxPoint x="180" y="580" as="sourcePoint" />
            <mxPoint x="230" y="530" as="targetPoint" />
          </mxGeometry>
        </mxCell>
        <mxCell id="XwtfY6F0WTNZeX9wsEnE-29" value="Démarrer / poursuivre conversation" style="ellipse;whiteSpace=wrap;html=1;" parent="1" vertex="1">
          <mxGeometry x="440" y="200" width="120" height="80" as="geometry" />
        </mxCell>
        <mxCell id="XwtfY6F0WTNZeX9wsEnE-30" value="" style="endArrow=none;html=1;rounded=0;" parent="1" source="XwtfY6F0WTNZeX9wsEnE-20" target="XwtfY6F0WTNZeX9wsEnE-29" edge="1">
          <mxGeometry width="50" height="50" relative="1" as="geometry">
            <mxPoint x="180" y="580" as="sourcePoint" />
            <mxPoint x="230" y="530" as="targetPoint" />
          </mxGeometry>
        </mxCell>
        <mxCell id="XwtfY6F0WTNZeX9wsEnE-31" value="&lt;div&gt;Consulter / éditer&amp;nbsp;&lt;/div&gt;&lt;div&gt;son profil&lt;/div&gt;" style="ellipse;whiteSpace=wrap;html=1;" parent="1" vertex="1">
          <mxGeometry x="570" y="130" width="120" height="80" as="geometry" />
        </mxCell>
        <mxCell id="XwtfY6F0WTNZeX9wsEnE-33" value="" style="endArrow=none;html=1;rounded=0;exitX=0.5;exitY=0.5;exitDx=0;exitDy=0;exitPerimeter=0;" parent="1" source="XwtfY6F0WTNZeX9wsEnE-20" target="XwtfY6F0WTNZeX9wsEnE-31" edge="1">
          <mxGeometry width="50" height="50" relative="1" as="geometry">
            <mxPoint x="180" y="580" as="sourcePoint" />
            <mxPoint x="230" y="530" as="targetPoint" />
          </mxGeometry>
        </mxCell>
        <mxCell id="XwtfY6F0WTNZeX9wsEnE-34" value="&lt;div&gt;Administrateur&lt;/div&gt;&lt;div&gt;&lt;br&gt;&lt;/div&gt;" style="shape=umlActor;verticalLabelPosition=bottom;verticalAlign=top;html=1;outlineConnect=0;" parent="1" vertex="1">
          <mxGeometry x="-100" y="600" width="30" height="60" as="geometry" />
        </mxCell>
        <mxCell id="XwtfY6F0WTNZeX9wsEnE-35" value="" style="endArrow=none;html=1;rounded=0;exitX=0.5;exitY=0.5;exitDx=0;exitDy=0;exitPerimeter=0;" parent="1" source="XwtfY6F0WTNZeX9wsEnE-34" target="XwtfY6F0WTNZeX9wsEnE-27" edge="1">
          <mxGeometry width="50" height="50" relative="1" as="geometry">
            <mxPoint x="180" y="580" as="sourcePoint" />
            <mxPoint x="230" y="530" as="targetPoint" />
          </mxGeometry>
        </mxCell>
        <mxCell id="XwtfY6F0WTNZeX9wsEnE-36" value="Consulter signalements" style="ellipse;whiteSpace=wrap;html=1;" parent="1" vertex="1">
          <mxGeometry x="200" y="440" width="120" height="80" as="geometry" />
        </mxCell>
        <mxCell id="XwtfY6F0WTNZeX9wsEnE-38" value="Contacter/Avertir/Bannir utilisateur" style="ellipse;whiteSpace=wrap;html=1;" parent="1" vertex="1">
          <mxGeometry x="340" y="560" width="120" height="80" as="geometry" />
        </mxCell>
        <mxCell id="XwtfY6F0WTNZeX9wsEnE-39" value="" style="endArrow=none;html=1;rounded=0;" parent="1" source="XwtfY6F0WTNZeX9wsEnE-34" target="XwtfY6F0WTNZeX9wsEnE-36" edge="1">
          <mxGeometry width="50" height="50" relative="1" as="geometry">
            <mxPoint x="180" y="580" as="sourcePoint" />
            <mxPoint x="230" y="530" as="targetPoint" />
          </mxGeometry>
        </mxCell>
        <mxCell id="XwtfY6F0WTNZeX9wsEnE-41" value="&amp;lt;&amp;lt;extend&amp;gt;&amp;gt;" style="html=1;verticalAlign=bottom;labelBackgroundColor=none;endArrow=open;endFill=0;dashed=1;rounded=0;entryX=0.75;entryY=0.9;entryDx=0;entryDy=0;entryPerimeter=0;" parent="1" source="XwtfY6F0WTNZeX9wsEnE-38" target="XwtfY6F0WTNZeX9wsEnE-36" edge="1">
          <mxGeometry width="160" relative="1" as="geometry">
            <mxPoint x="130" y="560" as="sourcePoint" />
            <mxPoint x="290" y="560" as="targetPoint" />
          </mxGeometry>
        </mxCell>
        <mxCell id="XwtfY6F0WTNZeX9wsEnE-42" value="Consulter rapports de bugs" style="ellipse;whiteSpace=wrap;html=1;" parent="1" vertex="1">
          <mxGeometry x="390" y="650" width="120" height="80" as="geometry" />
        </mxCell>
        <mxCell id="XwtfY6F0WTNZeX9wsEnE-43" value="" style="endArrow=none;html=1;rounded=0;exitX=0.5;exitY=0.5;exitDx=0;exitDy=0;exitPerimeter=0;" parent="1" source="XwtfY6F0WTNZeX9wsEnE-34" target="XwtfY6F0WTNZeX9wsEnE-38" edge="1">
          <mxGeometry width="50" height="50" relative="1" as="geometry">
            <mxPoint x="180" y="580" as="sourcePoint" />
            <mxPoint x="230" y="530" as="targetPoint" />
          </mxGeometry>
        </mxCell>
        <mxCell id="XwtfY6F0WTNZeX9wsEnE-44" value="" style="endArrow=none;html=1;rounded=0;exitX=0.5;exitY=0.5;exitDx=0;exitDy=0;exitPerimeter=0;entryX=0;entryY=0.5;entryDx=0;entryDy=0;" parent="1" source="XwtfY6F0WTNZeX9wsEnE-34" target="XwtfY6F0WTNZeX9wsEnE-42" edge="1">
          <mxGeometry width="50" height="50" relative="1" as="geometry">
            <mxPoint x="180" y="580" as="sourcePoint" />
            <mxPoint x="230" y="530" as="targetPoint" />
          </mxGeometry>
        </mxCell>
        <mxCell id="XwtfY6F0WTNZeX9wsEnE-45" value="&lt;div&gt;&amp;lt;&amp;lt;fragment&amp;gt;&amp;gt;&lt;/div&gt;&lt;div&gt;Authentification&lt;br&gt;&lt;/div&gt;" style="ellipse;whiteSpace=wrap;html=1;" parent="1" vertex="1">
          <mxGeometry x="560" y="430" width="120" height="80" as="geometry" />
        </mxCell>
        <mxCell id="XwtfY6F0WTNZeX9wsEnE-46" value="&amp;lt;&amp;lt;include&amp;gt;&amp;gt;" style="html=1;verticalAlign=bottom;labelBackgroundColor=none;endArrow=open;endFill=0;dashed=1;rounded=0;" parent="1" source="XwtfY6F0WTNZeX9wsEnE-29" target="XwtfY6F0WTNZeX9wsEnE-45" edge="1">
          <mxGeometry width="160" relative="1" as="geometry">
            <mxPoint x="130" y="560" as="sourcePoint" />
            <mxPoint x="290" y="560" as="targetPoint" />
          </mxGeometry>
        </mxCell>
        <mxCell id="XwtfY6F0WTNZeX9wsEnE-47" value="&amp;lt;&amp;lt;include&amp;gt;&amp;gt;" style="html=1;verticalAlign=bottom;labelBackgroundColor=none;endArrow=open;endFill=0;dashed=1;rounded=0;" parent="1" source="XwtfY6F0WTNZeX9wsEnE-36" target="XwtfY6F0WTNZeX9wsEnE-45" edge="1">
          <mxGeometry width="160" relative="1" as="geometry">
            <mxPoint x="643" y="442" as="sourcePoint" />
            <mxPoint x="572" y="282" as="targetPoint" />
          </mxGeometry>
        </mxCell>
        <mxCell id="XwtfY6F0WTNZeX9wsEnE-48" value="&amp;lt;&amp;lt;include&amp;gt;&amp;gt;" style="html=1;verticalAlign=bottom;labelBackgroundColor=none;endArrow=open;endFill=0;dashed=1;rounded=0;" parent="1" source="XwtfY6F0WTNZeX9wsEnE-38" target="XwtfY6F0WTNZeX9wsEnE-45" edge="1">
          <mxGeometry width="160" relative="1" as="geometry">
            <mxPoint x="653" y="452" as="sourcePoint" />
            <mxPoint x="582" y="292" as="targetPoint" />
          </mxGeometry>
        </mxCell>
        <mxCell id="XwtfY6F0WTNZeX9wsEnE-49" value="&amp;lt;&amp;lt;include&amp;gt;&amp;gt;" style="html=1;verticalAlign=bottom;labelBackgroundColor=none;endArrow=open;endFill=0;dashed=1;rounded=0;exitX=0.917;exitY=0.763;exitDx=0;exitDy=0;exitPerimeter=0;" parent="1" source="XwtfY6F0WTNZeX9wsEnE-27" target="XwtfY6F0WTNZeX9wsEnE-45" edge="1">
          <mxGeometry width="160" relative="1" as="geometry">
            <mxPoint x="663" y="462" as="sourcePoint" />
            <mxPoint x="592" y="302" as="targetPoint" />
          </mxGeometry>
        </mxCell>
        <mxCell id="XwtfY6F0WTNZeX9wsEnE-50" value="&amp;lt;&amp;lt;include&amp;gt;&amp;gt;" style="html=1;verticalAlign=bottom;labelBackgroundColor=none;endArrow=open;endFill=0;dashed=1;rounded=0;" parent="1" source="XwtfY6F0WTNZeX9wsEnE-31" target="XwtfY6F0WTNZeX9wsEnE-45" edge="1">
          <mxGeometry width="160" relative="1" as="geometry">
            <mxPoint x="673" y="472" as="sourcePoint" />
            <mxPoint x="602" y="312" as="targetPoint" />
          </mxGeometry>
        </mxCell>
        <mxCell id="XwtfY6F0WTNZeX9wsEnE-51" value="&amp;lt;&amp;lt;include&amp;gt;&amp;gt;" style="html=1;verticalAlign=bottom;labelBackgroundColor=none;endArrow=open;endFill=0;dashed=1;rounded=0;" parent="1" source="XwtfY6F0WTNZeX9wsEnE-42" target="XwtfY6F0WTNZeX9wsEnE-45" edge="1">
          <mxGeometry width="160" relative="1" as="geometry">
            <mxPoint x="583" y="505" as="sourcePoint" />
            <mxPoint x="447" y="575" as="targetPoint" />
          </mxGeometry>
        </mxCell>
        <mxCell id="BVlk_4agQHBwJB9n0E40-1" value="&amp;lt;&amp;lt;extend&amp;gt;&amp;gt;" style="html=1;verticalAlign=bottom;labelBackgroundColor=none;endArrow=open;endFill=0;dashed=1;rounded=0;" edge="1" parent="1" source="XwtfY6F0WTNZeX9wsEnE-29" target="XwtfY6F0WTNZeX9wsEnE-27">
          <mxGeometry width="160" relative="1" as="geometry">
            <mxPoint x="760" y="570" as="sourcePoint" />
            <mxPoint x="880" y="470" as="targetPoint" />
          </mxGeometry>
        </mxCell>
      </root>
    </mxGraphModel>
  </diagram>
</mxfile>
